<?xml version="1.0" standalone="no"?>
<!DOCTYPE svg PUBLIC "-//W3C//DTD SVG 20010904//EN"
 "http://www.w3.org/TR/2001/REC-SVG-20010904/DTD/svg10.dtd">
<svg version="1.0" xmlns="http://www.w3.org/2000/svg"
 width="385.000000pt" height="686.000000pt" viewBox="0 0 385.000000 686.000000"
 preserveAspectRatio="xMidYMid meet">

<g transform="translate(0.000000,686.000000) scale(0.100000,-0.100000)"
fill="#000000" stroke="none">
<path d="M150 3475 l0 -3045 340 0 340 0 0 3045 0 3045 -340 0 -340 0 0 -3045z"/>
<path d="M1240 3475 l0 -3046 63 3 62 3 5 1495 5 1495 86 -85 c228 -225 382
-592 465 -1107 5 -31 7 -33 48 -33 l44 0 12 81 c45 310 215 522 450 560 126
20 267 -25 341 -110 71 -80 137 -247 170 -431 10 -53 14 -159 13 -360 -1 -248
-4 -310 -27 -482 -44 -325 -71 -431 -155 -592 -123 -239 -332 -337 -519 -244
-100 50 -108 112 -33 288 69 164 83 223 78 339 -3 80 -9 105 -32 151 -48 95
-104 140 -209 166 -86 23 -174 13 -254 -26 -129 -64 -193 -208 -193 -435 0
-126 20 -217 65 -310 93 -189 285 -335 540 -412 84 -25 102 -27 280 -27 179 0
195 1 280 28 400 123 667 442 795 949 49 193 63 348 57 616 -7 331 -36 481
-127 666 -120 243 -355 445 -600 515 -97 28 -264 37 -367 20 -96 -15 -208 -51
-295 -94 l-67 -33 -110 187 c-61 103 -114 195 -117 204 -4 10 38 90 111 216
l117 200 32 -20 c57 -35 209 -88 301 -105 106 -20 285 -16 380 9 93 25 252
108 342 180 225 179 348 421 388 766 17 144 20 463 5 595 -51 444 -227 822
-478 1025 -196 160 -397 230 -656 230 -276 0 -511 -93 -688 -271 -130 -132
-188 -280 -188 -484 0 -228 69 -377 204 -441 94 -44 230 -41 322 7 181 96 216
337 89 615 -54 119 -69 177 -55 219 22 68 119 117 231 117 142 1 281 -103 371
-278 84 -161 111 -267 155 -592 23 -171 26 -234 27 -482 1 -321 -9 -409 -69
-578 -57 -158 -116 -240 -207 -284 -79 -39 -165 -52 -250 -38 -236 40 -403
248 -448 559 l-12 81 -44 0 c-41 0 -43 -2 -48 -32 -35 -219 -68 -353 -126
-523 -88 -255 -198 -445 -339 -585 l-86 -85 -3 1543 -2 1542 -65 0 -65 0 0
-3045z"/>
</g>
</svg>
