<svg id="Capa_1" enable-background="new 0 0 512.007 512.007" height="512" viewBox="0 0 512.007 512.007" width="512" xmlns="http://www.w3.org/2000/svg"><path d="m318.982 43.078c-37.957-34.144-93.576-48.423-160.842-41.288-6.899.731-21.111 3.555-21.538 3.673-21.69 5.148-41.514 14.461-58.533 27.525-1.798 1.195-8.992 7.465-10.25 8.628-21.256 19.636-36.806 45.87-43.785 73.87-11.688 46.889 1.7 91.335 34.107 113.231 1.605 1.084 10.067 6.758 26.297 9.191 22.685 3.401 45.726-5.363 59.319-23.84 6.923-9.411 11.219-20.852 11.774-33.208 1.568-34.907-26.377-63.806-60.945-63.806-11.401 0-22.076 3.151-31.215 8.617-2.955-2.425-3.256-4.971-3.441-6.578-.94-8.154 3.955-21.473 13.093-35.628 6.209-9.617 12.625-17.058 16.912-21.369 4.261-3.78 8.791-7.239 13.562-10.365 35.984-23.577 83.464-21.397 115.899 6.864.672.585 1.338 1.181 2 1.787 32.868 30.119 50.969 84.263 50.969 152.455 0 104.323-61.133 189.816-112.695 243.356-13.455 10.792-26.125 20.314-37.331 28.383-6.819 4.91-8.632 14.684-3.601 21.414 2.936 3.928 7.448 6.015 12.024 6.015 3.034 0 6.096-.917 8.747-2.824 39.29-28.264 96.121-73.831 143.735-130.405 58.481-69.485 88.134-137.699 88.134-202.746-.001-56.142-18.119-102.117-52.396-132.952z"/><path d="m447.352 178.47c24.696 0 44.787-20.091 44.787-44.786s-20.091-44.787-44.787-44.787c-24.695 0-44.787 20.092-44.787 44.787s20.092 44.786 44.787 44.786z"/><path d="m447.352 227.901c-24.695 0-44.787 20.092-44.787 44.787s20.091 44.787 44.787 44.787 44.787-20.092 44.787-44.787-20.091-44.787-44.787-44.787z"/></svg>